<?xml version="1.0" encoding="UTF-8"?>
<!DOCTYPE svg PUBLIC "-//W3C//DTD SVG 1.1//EN" "http://www.w3.org/Graphics/SVG/1.1/DTD/svg11.dtd">
<svg xmlns="http://www.w3.org/2000/svg" version="1.1" width="210px" height="209px" style="shape-rendering:geometricPrecision; text-rendering:geometricPrecision; image-rendering:optimizeQuality; fill-rule:evenodd; clip-rule:evenodd" xmlns:xlink="http://www.w3.org/1999/xlink">
<g><path style="opacity:1" fill="#21222c" d="M -0.5,-0.5 C 69.5,-0.5 139.5,-0.5 209.5,-0.5C 209.5,69.1667 209.5,138.833 209.5,208.5C 139.5,208.5 69.5,208.5 -0.5,208.5C -0.5,138.833 -0.5,69.1667 -0.5,-0.5 Z"/></g>
<g><path style="opacity:1" fill="#fefefe" d="M 93.5,1.5 C 138.063,-1.13686 172.229,16.1965 196,53.5C 215.795,93.8558 212.128,131.856 185,167.5C 151.324,202.306 111.49,211.806 65.5,196C 21.1851,174.886 0.351758,139.719 3,90.5C 12.8843,40.1151 43.0509,10.4484 93.5,1.5 Z"/></g>
<g><path style="opacity:1" fill="#21222c" d="M 101.5,55.5 C 105.5,55.5 109.5,55.5 113.5,55.5C 113.333,68.8375 113.5,82.1708 114,95.5C 127.087,96.4894 140.254,96.8227 153.5,96.5C 153.5,100.5 153.5,104.5 153.5,108.5C 139.833,108.5 126.167,108.5 112.5,108.5C 112.5,122.167 112.5,135.833 112.5,149.5C 108.833,149.5 105.167,149.5 101.5,149.5C 101.963,136.068 101.463,122.735 100,109.5C 86.9128,108.511 73.7461,108.177 60.5,108.5C 60.5,104.5 60.5,100.5 60.5,96.5C 73.8375,96.6666 87.1708,96.4999 100.5,96C 101.49,82.5792 101.823,69.0792 101.5,55.5 Z"/></g>
</svg>
